<svg xmlns="http://www.w3.org/2000/svg" xmlns:xlink="http://www.w3.org/1999/xlink" width="50" height="50" viewBox="0 0 50 50">
  <defs>
    <clipPath id="clip-path">
      <circle id="Ellipse_126" data-name="Ellipse 126" cx="25" cy="25" r="25" transform="translate(1346 1170)" fill="none" stroke="#707070" stroke-width="1"/>
    </clipPath>
    <linearGradient id="linear-gradient" x1="0.074" y1="0.926" x2="1.154" y2="-0.154" gradientUnits="objectBoundingBox">
      <stop offset="0.001" stop-color="#fbe18a"/>
      <stop offset="0.209" stop-color="#fcbb45"/>
      <stop offset="0.376" stop-color="#f75274"/>
      <stop offset="0.524" stop-color="#d53692"/>
      <stop offset="0.739" stop-color="#8f39ce"/>
      <stop offset="1" stop-color="#5b4fe9"/>
    </linearGradient>
  </defs>
  <g id="Mask_Group_7" data-name="Mask Group 7" transform="translate(-1346 -1170)" clip-path="url(#clip-path)">
    <g id="Group_1985" data-name="Group 1985" transform="translate(103.942 -133.839)">
      <circle id="Ellipse_117" data-name="Ellipse 117" cx="24.324" cy="24.324" r="24.324" transform="translate(1235.058 1315.456) rotate(-22.5)" fill="url(#linear-gradient)"/>
      <g id="Group_1983" data-name="Group 1983" transform="translate(1250.8 1312.504)">
        <ellipse id="Ellipse_121" data-name="Ellipse 121" cx="1.89" cy="1.89" rx="1.89" ry="1.89" transform="translate(22.76 5.755)" fill="#fff"/>
        <path id="Path_213" data-name="Path 213" d="M328.439,287.753a7.938,7.938,0,1,0,7.938,7.938A7.947,7.947,0,0,0,328.439,287.753Zm0,13.023a5.085,5.085,0,1,1,5.085-5.085A5.09,5.09,0,0,1,328.439,300.776Z" transform="translate(-312.191 -279.575)" fill="#fff"/>
        <g id="Group_1982" data-name="Group 1982" transform="translate(0 0)">
          <path id="Path_214" data-name="Path 214" d="M329.348,306.5H316.479a9.692,9.692,0,0,1-9.682-9.682V283.95a9.692,9.692,0,0,1,9.682-9.682h12.868a9.693,9.693,0,0,1,9.682,9.682v12.869A9.693,9.693,0,0,1,329.348,306.5Zm-12.868-29.2a6.656,6.656,0,0,0-6.649,6.649v12.869a6.656,6.656,0,0,0,6.649,6.649h12.868a6.657,6.657,0,0,0,6.65-6.649V283.95a6.657,6.657,0,0,0-6.65-6.649Z" transform="translate(-306.798 -274.268)" fill="#fff"/>
        </g>
      </g>
    </g>
  </g>
</svg>
