<svg xmlns="http://www.w3.org/2000/svg" xmlns:xlink="http://www.w3.org/1999/xlink" width="50" height="50" viewBox="0 0 50 50">
  <defs>
    <clipPath id="clip-path">
      <circle id="Ellipse_125" data-name="Ellipse 125" cx="25" cy="25" r="25" transform="translate(1264 1167)" fill="none" stroke="#707070" stroke-width="1"/>
    </clipPath>
  </defs>
  <g id="Mask_Group_6" data-name="Mask Group 6" transform="translate(-1264 -1167)" clip-path="url(#clip-path)">
    <g id="Group_1988" data-name="Group 1988" transform="translate(175.975 -136.565)">
      <ellipse id="Ellipse_115" data-name="Ellipse 115" cx="24.324" cy="24.324" rx="24.324" ry="24.324" transform="translate(1084.025 1347.122) rotate(-77.844)" fill="#3cf"/>
      <g id="Group_1978" data-name="Group 1978" transform="translate(1097.851 1316.127)">
        <path id="Path_200" data-name="Path 200" d="M84.446,283.2a12.322,12.322,0,0,1-3.026.864c.488-.082,1.206-.964,1.493-1.322a5.562,5.562,0,0,0,1.008-1.835c.026-.052.046-.118-.006-.158a.172.172,0,0,0-.16.013,15.474,15.474,0,0,1-3.6,1.375.241.241,0,0,1-.248-.065,2.88,2.88,0,0,0-.314-.321,6.356,6.356,0,0,0-1.741-1.067,6.059,6.059,0,0,0-2.671-.43,6.38,6.38,0,0,0-2.534.716,6.519,6.519,0,0,0-2.044,1.67,6.284,6.284,0,0,0-1.221,2.445,6.619,6.619,0,0,0-.064,2.582c.019.144.007.164-.124.144-4.937-.735-9.03-2.5-12.352-6.288-.144-.164-.223-.164-.341.013-1.454,2.179-.748,5.681,1.067,7.4.243.229.491.458.759.668a6.3,6.3,0,0,1-2.383-.668c-.144-.092-.217-.039-.229.124a3.783,3.783,0,0,0,.039.708,6.334,6.334,0,0,0,3.9,5.049,3.717,3.717,0,0,0,.792.243,7.066,7.066,0,0,1-2.338.072c-.17-.033-.235.052-.17.216a6.578,6.578,0,0,0,4.912,4.114c.223.039.445.039.668.091-.013.02-.027.02-.039.039-.551.841-2.464,1.467-3.354,1.778a12.02,12.02,0,0,1-5.095.652c-.274-.04-.331-.038-.406,0s-.01.112.078.183c.347.229.7.432,1.061.629a16.84,16.84,0,0,0,3.406,1.362c6.12,1.69,13.014.448,17.61-4.117,3.608-3.586,4.874-8.531,4.874-13.481,0-.194.229-.3.365-.4a11.837,11.837,0,0,0,2.385-2.493.723.723,0,0,0,.148-.477V283.2C84.559,283.121,84.568,283.145,84.446,283.2Z" transform="translate(-54.599 -280.243)" fill="#fff"/>
        <path id="Path_201" data-name="Path 201" d="M69.27,321.013Z" transform="translate(-60.372 -296.288)" fill="#fff" fill-rule="evenodd"/>
        <path id="Path_202" data-name="Path 202" d="M69.122,321.013c-.039,0-.494,0,0,0Z" transform="translate(-60.224 -296.288)" fill="#fff" fill-rule="evenodd"/>
        <path id="Path_203" data-name="Path 203" d="M70.933,321.041c0-.051.531,0,0,0C70.933,321.015,71,321.041,70.933,321.041Z" transform="translate(-61.027 -296.29)" fill="#fff" fill-rule="evenodd"/>
        <path id="Path_204" data-name="Path 204" d="M88.326,280.557a.107.107,0,0,1-.124,0Z" transform="translate(-67.823 -280.367)" fill="#fff" fill-rule="evenodd"/>
      </g>
    </g>
  </g>
</svg>
