<svg xmlns="http://www.w3.org/2000/svg" xmlns:xlink="http://www.w3.org/1999/xlink" width="50" height="50" viewBox="0 0 50 50">
  <defs>
    <clipPath id="clip-path">
      <circle id="Ellipse_127" data-name="Ellipse 127" cx="25" cy="25" r="25" transform="translate(1433 1167)" fill="none" stroke="#707070" stroke-width="1"/>
    </clipPath>
  </defs>
  <g id="Mask_Group_8" data-name="Mask Group 8" transform="translate(-1433 -1167)" clip-path="url(#clip-path)">
    <g id="Group_1987" data-name="Group 1987" transform="translate(268.766 -75.253)">
      <circle id="Ellipse_118" data-name="Ellipse 118" cx="24.324" cy="24.324" r="24.324" transform="translate(1155.234 1267.652) rotate(-45)" fill="#60fc7c"/>
      <g id="Group_1979" data-name="Group 1979" transform="translate(1174.113 1252.133)">
        <path id="Path_209" data-name="Path 209" d="M195.868,174.723a15.516,15.516,0,0,0-13.041,23.929l-2.357,5.193a1.355,1.355,0,0,0,1.593,1.867l6.5-1.782a15.518,15.518,0,1,0,7.31-29.207Zm0,28.327a12.793,12.793,0,0,1-6.449-1.744,1.36,1.36,0,0,0-1.042-.137l-4.243,1.164,1.478-3.256a1.355,1.355,0,0,0-.135-1.353,12.807,12.807,0,1,1,10.392,5.325Z" transform="translate(-180.349 -174.723)" fill="#fff" fill-rule="evenodd"/>
        <path id="Path_210" data-name="Path 210" d="M207.011,198.037a2.654,2.654,0,0,0-2.262-.509c-.587.24-.962,1.16-1.343,1.63a.563.563,0,0,1-.728.158,10.241,10.241,0,0,1-5.111-4.378.627.627,0,0,1,.079-.856,3.456,3.456,0,0,0,.928-1.508,3.294,3.294,0,0,0-.415-1.784,4.231,4.231,0,0,0-1.317-1.986,1.805,1.805,0,0,0-1.96.292,3.979,3.979,0,0,0-1.38,3.152,4.469,4.469,0,0,0,.124,1,8.309,8.309,0,0,0,.959,2.212,17.5,17.5,0,0,0,1,1.523,15.462,15.462,0,0,0,4.346,4.035,13.117,13.117,0,0,0,2.71,1.289,6.02,6.02,0,0,0,3.155.5,3.818,3.818,0,0,0,2.86-2.128,1.846,1.846,0,0,0,.133-1.086C208.629,198.844,207.616,198.4,207.011,198.037Z" transform="translate(-185.525 -180.195)" fill="#fff" fill-rule="evenodd"/>
      </g>
    </g>
  </g>
</svg>
