<?xml version="1.0" encoding="utf-8"?>
<!-- Generator: Adobe Illustrator 23.0.1, SVG Export Plug-In . SVG Version: 6.00 Build 0)  -->
<svg version="1.1" id="Layer_1" xmlns="http://www.w3.org/2000/svg" xmlns:xlink="http://www.w3.org/1999/xlink" x="0px" y="0px"
	 viewBox="0 0 615 615" style="enable-background:new 0 0 615 615;" xml:space="preserve">
<style type="text/css">
	.st0{fill:#0068FF;}
</style>
<g transform="translate(0.000000,615.000000) scale(0.100000,-0.100000)">
	<path class="st0" d="M2845,6099c-510-48-986-213-1395-483c-185-123-299-214-459-371c-259-253-439-500-596-820
		c-158-321-238-574-291-928c-21-142-30-534-15-694c35-369,129-706,290-1038c167-343,344-589,617-855c291-284,602-487,974-638
		c757-306,1625-291,2369,42c220,98,471,251,661,402c114,91,379,356,474,475c128,161,243,344,341,544c133,270,206,479,260,750
		c75,372,75,818,0,1190c-185,921-789,1708-1630,2120c-318,156-600,242-955,290C3350,6104,2982,6112,2845,6099z M2177,3925
		c89-26,155-127,137-208c-15-71-52-123-669-932l-145-190l368-5c361-5,368-5,404-28c74-46,104-181,56-252c-43-62-67-73-185-81
		c-147-10-748-10-909,0c-144,10-191,25-237,81c-47,55-48,155-4,235c29,51,478,642,718,945c15,19,32,47,38,62l10,26l-307,4l-307,3
		l-57,27c-66,31-89,61-96,127c-9,99,34,157,139,185C1212,3946,2104,3947,2177,3925z M3888,3913c14-11,35-32,46-47
		c21-27,21-38,24-744c3-737,1-772-36-818c-60-73-186-82-262-18c-61,52-61,55-58,830l3,699l27,46c37,63,75,81,161,76
		C3841,3934,3870,3926,3888,3913z M2941,3450c30-5,90-28,134-50s86-40,94-40c7,0,31,15,52,34c78,71,195,55,263-37
		c21-28,21-37,21-517s0-489-21-517c-68-92-180-108-264-38c-23,19-48,35-56,35c-7,0-42-15-76-34c-84-46-157-66-238-66
		c-221,0-421,160-506,405c-26,72-28,93-28,215s2,143,28,215C2442,3338,2683,3497,2941,3450z M4838,3428c182-55,313-184,378-373
		c26-72,28-93,28-215s-2-143-28-215c-87-251-304-405-571-405c-168,0-299,54-416,170c-134,133-186,277-176,489
		c10,224,104,389,282,496C4474,3458,4673,3479,4838,3428z"/>
	<path class="st0" d="M2811,3098c-88-43-136-149-129-282c9-163,96-256,237-256c44,0,109,24,141,52c109,92,116,332,12,441
		C3007,3122,2897,3141,2811,3098z"/>
	<path class="st0" d="M4555,3104c-50-27-92-74-116-128c-32-72-32-200,0-271c41-93,113-144,202-145c94,0,164,41,207,123
		c24,47,27,62,27,157c0,99-2,108-31,160c-18,32-49,68-73,85c-36,25-53,30-114,32C4605,3119,4577,3116,4555,3104z"/>
</g>
</svg>
